<?xml version="1.0" encoding="UTF-8"?>
<svg width="300" height="300" viewBox="0 0 300 300" fill="none" xmlns="http://www.w3.org/2000/svg">
  <!-- Background Circle -->
  <circle cx="150" cy="150" r="150" fill="#222" />
  
  <!-- Outer Ring with Stars -->
  <circle cx="150" cy="150" r="140" stroke="#4E63EE" stroke-width="10" fill="none" />
  
  <!-- Stars on Ring -->
  <path d="M80 90 L90 80 L100 90 L90 100 Z" fill="#4E63EE" transform="rotate(15, 80, 90)" />
  <path d="M220 90 L230 80 L240 90 L230 100 Z" fill="#4E63EE" transform="rotate(35, 220, 90)" />
  <path d="M80 210 L90 200 L100 210 L90 220 Z" fill="#4E63EE" transform="rotate(45, 80, 210)" />
  <path d="M220 210 L230 200 L240 210 L230 220 Z" fill="#4E63EE" transform="rotate(20, 220, 210)" />
  
  <!-- Small Dots -->
  <circle cx="150" cy="20" r="5" fill="white" />
  <circle cx="280" cy="150" r="5" fill="white" />
  <circle cx="150" cy="280" r="5" fill="white" />
  <circle cx="20" cy="150" r="5" fill="white" />
  
  <!-- Robot Head -->
  <rect x="85" y="100" width="130" height="130" rx="15" fill="#4E63EE" />
  
  <!-- Antenna -->
  <circle cx="150" cy="85" r="15" fill="#78AAFF" />
  
  <!-- Robot Eyes -->
  <circle cx="120" cy="140" r="20" fill="white" />
  <circle cx="180" cy="140" r="20" fill="white" />
  
  <!-- Pupils -->
  <circle cx="120" cy="140" r="10" fill="#222" />
  <circle cx="180" cy="140" r="10" fill="#222" />
  
  <!-- Mouth -->
  <rect x="110" cy="190" width="80" height="15" rx="7.5" fill="white" />
</svg>