<?xml version="1.0" encoding="UTF-8"?>
<svg width="800" height="500" viewBox="0 0 800 500" xmlns="http://www.w3.org/2000/svg">
  <!-- Dashboard Background -->
  <rect x="0" y="0" width="800" height="500" fill="#1A202C" />
  
  <!-- Sidebar -->
  <rect x="0" y="0" width="200" height="500" fill="#2D3748" />
  
  <!-- Logo area -->
  <rect x="20" y="20" width="160" height="40" rx="5" fill="#4F46E5" />
  <text x="100" y="45" font-family="Arial, sans-serif" font-size="16" font-weight="bold" text-anchor="middle" fill="white">ASTROBOT</text>
  
  <!-- Sidebar Menu Items -->
  <rect x="20" y="80" width="160" height="40" rx="5" fill="#3182CE" />
  <text x="100" y="105" font-family="Arial, sans-serif" font-size="14" text-anchor="middle" fill="white">Dashboard</text>
  
  <rect x="20" y="130" width="160" height="40" rx="5" fill="#2D3748" />
  <text x="100" y="155" font-family="Arial, sans-serif" font-size="14" text-anchor="middle" fill="white">Minecraft</text>
  
  <rect x="20" y="180" width="160" height="40" rx="5" fill="#2D3748" />
  <text x="100" y="205" font-family="Arial, sans-serif" font-size="14" text-anchor="middle" fill="white">Twitch</text>
  
  <rect x="20" y="230" width="160" height="40" rx="5" fill="#2D3748" />
  <text x="100" y="255" font-family="Arial, sans-serif" font-size="14" text-anchor="middle" fill="white">AI Features</text>
  
  <rect x="20" y="280" width="160" height="40" rx="5" fill="#2D3748" />
  <text x="100" y="305" font-family="Arial, sans-serif" font-size="14" text-anchor="middle" fill="white">Commands</text>
  
  <rect x="20" y="330" width="160" height="40" rx="5" fill="#2D3748" />
  <text x="100" y="355" font-family="Arial, sans-serif" font-size="14" text-anchor="middle" fill="white">Analytics</text>
  
  <rect x="20" y="380" width="160" height="40" rx="5" fill="#2D3748" />
  <text x="100" y="405" font-family="Arial, sans-serif" font-size="14" text-anchor="middle" fill="white">Settings</text>
  
  <!-- Main Content Area -->
  <rect x="220" y="20" width="560" height="60" rx="5" fill="#2D3748" />
  <text x="250" y="55" font-family="Arial, sans-serif" font-size="24" font-weight="bold" fill="white">Dashboard Overview</text>
  
  <!-- Stats Cards -->
  <rect x="220" y="100" width="270" height="120" rx="5" fill="#2D3748" />
  <text x="240" y="130" font-family="Arial, sans-serif" font-size="16" fill="white">Server Status</text>
  <circle cx="240" cy="160" r="10" fill="#48BB78" />
  <text x="260" y="165" font-family="Arial, sans-serif" font-size="14" fill="white">Online - 24 players</text>
  
  <rect x="510" y="100" width="270" height="120" rx="5" fill="#2D3748" />
  <text x="530" y="130" font-family="Arial, sans-serif" font-size="16" fill="white">Twitch Integration</text>
  <circle cx="530" cy="160" r="10" fill="#9F7AEA" />
  <text x="550" y="165" font-family="Arial, sans-serif" font-size="14" fill="white">2 channels live</text>
  
  <!-- AI Activity -->
  <rect x="220" y="240" width="560" height="120" rx="5" fill="#2D3748" />
  <text x="240" y="270" font-family="Arial, sans-serif" font-size="16" fill="white">AI Activity</text>
  <rect x="240" y="290" width="520" height="50" rx="5" fill="#1A202C" />
  <text x="250" y="320" font-family="Arial, sans-serif" font-size="14" fill="#A0AEC0">Recent queries: 523 | Claude: 42% | GPT-4o: 58%</text>
  
  <!-- Recent Activity -->
  <rect x="220" y="380" width="560" height="100" rx="5" fill="#2D3748" />
  <text x="240" y="410" font-family="Arial, sans-serif" font-size="16" fill="white">Recent Activity</text>
  <rect x="240" y="430" width="520" height="30" rx="5" fill="#1A202C" />
  <text x="250" y="450" font-family="Arial, sans-serif" font-size="14" fill="#E2E8F0">User joined: MineExplorer123</text>
</svg>